<svg xmlns="http://www.w3.org/2000/svg" xmlns:xlink="http://www.w3.org/1999/xlink" width="500" zoomAndPan="magnify" viewBox="0 0 375 187.499995" height="250" preserveAspectRatio="xMidYMid meet" version="1.0"><defs><g/><clipPath id="e13392d89d"><path d="M 0.5 0 L 374.5 0 L 374.5 187 L 0.5 187 Z M 0.5 0 " clip-rule="nonzero"/></clipPath><clipPath id="1c6a9f2f0d"><path d="M 0.5 9.410156 L 78.277344 9.410156 L 78.277344 87.1875 L 0.5 87.1875 Z M 0.5 9.410156 " clip-rule="nonzero"/></clipPath><clipPath id="bda495fedb"><path d="M 0.5 0.410156 L 78.277344 0.410156 L 78.277344 78.1875 L 0.5 78.1875 Z M 0.5 0.410156 " clip-rule="nonzero"/></clipPath><clipPath id="fb50c82f3c"><rect x="0" width="79" y="0" height="79"/></clipPath><clipPath id="6289c7a0c9"><path d="M 324.945312 114.859375 L 374.5 114.859375 L 374.5 164.414062 L 324.945312 164.414062 Z M 324.945312 114.859375 " clip-rule="nonzero"/></clipPath><clipPath id="6a315205f2"><path d="M 0.945312 0.859375 L 50.5 0.859375 L 50.5 50.414062 L 0.945312 50.414062 Z M 0.945312 0.859375 " clip-rule="nonzero"/></clipPath><clipPath id="902145982a"><rect x="0" width="51" y="0" height="51"/></clipPath><clipPath id="09d2a46f45"><path d="M 78.277344 87.1875 L 155.503906 87.1875 L 155.503906 164.414062 L 78.277344 164.414062 Z M 78.277344 87.1875 " clip-rule="nonzero"/></clipPath><clipPath id="172498a8f9"><path d="M 0.277344 0.1875 L 77.503906 0.1875 L 77.503906 77.414062 L 0.277344 77.414062 Z M 0.277344 0.1875 " clip-rule="nonzero"/></clipPath><clipPath id="796e130d39"><rect x="0" width="78" y="0" height="78"/></clipPath><clipPath id="dac7f3cdc5"><path d="M 78.277344 87.1875 L 155.492188 87.1875 L 155.492188 164.402344 L 78.277344 164.402344 Z M 78.277344 87.1875 " clip-rule="nonzero"/></clipPath><clipPath id="60ba8e8bd2"><path d="M 198.417969 23.386719 L 275.683594 23.386719 L 275.683594 100.65625 L 198.417969 100.65625 Z M 198.417969 23.386719 " clip-rule="nonzero"/></clipPath><clipPath id="b658c04019"><path d="M 0.417969 0.386719 L 77.683594 0.386719 L 77.683594 77.65625 L 0.417969 77.65625 Z M 0.417969 0.386719 " clip-rule="nonzero"/></clipPath><clipPath id="aa998046ec"><rect x="0" width="78" y="0" height="78"/></clipPath><clipPath id="86f379e2f1"><path d="M 198.417969 23.394531 L 275.667969 23.394531 L 275.667969 100.644531 L 198.417969 100.644531 Z M 198.417969 23.394531 " clip-rule="nonzero"/></clipPath><clipPath id="c81331d4e2"><rect x="0" width="326" y="0" height="185"/></clipPath><clipPath id="0227adf068"><rect x="0" width="47" y="0" height="59"/></clipPath><clipPath id="50d2f038ab"><rect x="0" width="375" y="0" height="187"/></clipPath></defs><g clip-path="url(#e13392d89d)"><path fill="#ffffff" d="M 0.5 0 L 374.5 0 L 374.5 187 L 0.5 187 Z M 0.5 0 " fill-opacity="1" fill-rule="nonzero"/><path fill="#ffffff" d="M 0.5 0 L 374.5 0 L 374.5 187 L 0.5 187 Z M 0.5 0 " fill-opacity="1" fill-rule="nonzero"/><g transform="matrix(1, 0, 0, 1, 0, 0)"><g clip-path="url(#50d2f038ab)"><g clip-path="url(#1c6a9f2f0d)"><g transform="matrix(1, 0, 0, 1, 0, 9)"><g clip-path="url(#fb50c82f3c)"><g clip-path="url(#bda495fedb)"><path fill="#64f0b4" d="M 0.5 0.410156 L 78.277344 0.410156 L 78.277344 78.1875 L 0.5 78.1875 Z M 0.5 0.410156 " fill-opacity="1" fill-rule="nonzero"/></g></g></g></g><g clip-path="url(#6289c7a0c9)"><g transform="matrix(1, 0, 0, 1, 324, 114)"><g clip-path="url(#902145982a)"><g clip-path="url(#6a315205f2)"><path fill="#64f0b4" d="M 0.945312 0.859375 L 50.5 0.859375 L 50.5 50.414062 L 0.945312 50.414062 Z M 0.945312 0.859375 " fill-opacity="1" fill-rule="nonzero"/></g></g></g></g><g clip-path="url(#09d2a46f45)"><g transform="matrix(1, 0, 0, 1, 78, 87)"><g clip-path="url(#796e130d39)"><g clip-path="url(#172498a8f9)"><path fill="#ffffff" d="M 0.277344 0.1875 L 77.503906 0.1875 L 77.503906 77.414062 L 0.277344 77.414062 Z M 0.277344 0.1875 " fill-opacity="1" fill-rule="nonzero"/></g></g></g></g><g clip-path="url(#dac7f3cdc5)"><path stroke-linecap="butt" transform="matrix(1.091137, 0, 0, 1.091137, 78.276021, 87.185624)" fill="none" stroke-linejoin="miter" d="M 0.00121191 0.00171886 L 70.766683 0.00171886 L 70.766683 70.76719 L 0.00121191 70.76719 Z M 0.00121191 0.00171886 " stroke="#c8ebeb" stroke-width="1.371056" stroke-opacity="1" stroke-miterlimit="4"/></g><g clip-path="url(#60ba8e8bd2)"><g transform="matrix(1, 0, 0, 1, 198, 23)"><g clip-path="url(#aa998046ec)"><g clip-path="url(#b658c04019)"><path fill="#ffffff" d="M 0.417969 0.386719 L 77.683594 0.386719 L 77.683594 77.652344 L 0.417969 77.652344 Z M 0.417969 0.386719 " fill-opacity="1" fill-rule="nonzero"/></g></g></g></g><g clip-path="url(#86f379e2f1)"><path stroke-linecap="butt" transform="matrix(1.091137, 0, 0, 1.091137, 198.418765, 23.395118)" fill="none" stroke-linejoin="miter" d="M -0.000729848 -0.00053732 L 70.796953 -0.00053732 L 70.796953 70.797146 L -0.000729848 70.797146 Z M -0.000729848 -0.00053732 " stroke="#c8ebeb" stroke-width="1.371056" stroke-opacity="1" stroke-miterlimit="4"/></g><g transform="matrix(1, 0, 0, 1, 26, 2)"><g clip-path="url(#c81331d4e2)"><g fill="#000000" fill-opacity="1"><g transform="translate(0.346887, 152.354079)"><g><path d="M 34.515625 -64.140625 L 34.21875 -64.140625 L 34.21875 0 L 10.875 0 L 10.875 -104.53125 L 34.21875 -104.53125 L 68.015625 -40.375 L 68.296875 -40.375 L 68.296875 -104.53125 L 91.640625 -104.53125 L 91.640625 0 L 68.296875 0 Z M 34.515625 -64.140625 "/></g></g></g><g fill="#000000" fill-opacity="1"><g transform="translate(102.861041, 152.354079)"><g><path d="M 31.21875 -20.046875 C 33.601562 -16.515625 37.179688 -14.75 41.953125 -14.75 C 46.722656 -14.75 50.253906 -16.515625 52.546875 -20.046875 C 54.929688 -23.578125 56.125 -29.304688 56.125 -37.234375 C 56.125 -45.148438 54.929688 -50.875 52.546875 -54.40625 C 50.253906 -57.9375 46.722656 -59.703125 41.953125 -59.703125 C 37.179688 -59.703125 33.601562 -57.9375 31.21875 -54.40625 C 28.925781 -50.875 27.78125 -45.148438 27.78125 -37.234375 C 27.78125 -29.398438 28.925781 -23.671875 31.21875 -20.046875 Z M 14.3125 -65.71875 C 20.90625 -72.5 30.117188 -75.890625 41.953125 -75.890625 C 53.785156 -75.890625 63 -72.5 69.59375 -65.71875 C 76.175781 -59.039062 79.46875 -49.546875 79.46875 -37.234375 C 79.46875 -25.015625 76.175781 -15.515625 69.59375 -8.734375 C 63 -1.953125 53.785156 1.4375 41.953125 1.4375 C 30.117188 1.4375 20.90625 -1.953125 14.3125 -8.734375 C 7.726562 -15.515625 4.4375 -25.015625 4.4375 -37.234375 C 4.4375 -49.546875 7.726562 -59.039062 14.3125 -65.71875 Z M 14.3125 -65.71875 "/></g></g></g><g fill="#000000" fill-opacity="1"><g transform="translate(186.762293, 152.354079)"><g><path d="M 80.1875 0 L 10.875 0 L 10.875 -104.53125 L 35.9375 -104.53125 L 35.9375 -20.1875 L 80.1875 -20.1875 Z M 80.1875 0 "/></g></g></g><g fill="#000000" fill-opacity="1"><g transform="translate(274.242939, 152.354079)"><g><path d="M 13.03125 -107.390625 L 37.375 -107.390625 L 37.375 -88.78125 L 13.03125 -88.78125 Z M 13.03125 -74.453125 L 37.375 -74.453125 L 37.375 0 L 13.03125 0 Z M 13.03125 -74.453125 "/></g></g></g></g></g><g transform="matrix(1, 0, 0, 1, 326, 0)"><g clip-path="url(#0227adf068)"><g fill="#000000" fill-opacity="1"><g transform="translate(1.150092, 45.079298)"><g><path d="M 12.1875 -23.796875 L 10.25 -29.921875 C 11.8125 -30.953125 13.722656 -31.78125 15.984375 -32.40625 C 18.179688 -33.070312 20.347656 -33.40625 22.484375 -33.40625 C 26.242188 -33.40625 29.15625 -32.539062 31.21875 -30.8125 C 33.28125 -29.082031 34.3125 -26.679688 34.3125 -23.609375 C 34.3125 -20.960938 33.40625 -18.421875 31.59375 -15.984375 C 29.789062 -13.578125 26.285156 -10.34375 21.078125 -6.28125 L 21.078125 -6.1875 L 34.4375 -6.1875 L 34.4375 0 L 10.96875 0 L 10.96875 -6.1875 C 15.300781 -9.3125 18.597656 -11.882812 20.859375 -13.90625 C 23.140625 -15.945312 24.628906 -17.585938 25.328125 -18.828125 C 26.046875 -20.148438 26.40625 -21.503906 26.40625 -22.890625 C 26.40625 -25.660156 24.722656 -27.046875 21.359375 -27.046875 C 18.828125 -27.046875 15.769531 -25.960938 12.1875 -23.796875 Z M 12.1875 -23.796875 "/></g></g></g></g></g></g></g></g></svg>