<svg xmlns="http://www.w3.org/2000/svg" xmlns:xlink="http://www.w3.org/1999/xlink" width="500" zoomAndPan="magnify" viewBox="0 0 375 374.999991" height="500" preserveAspectRatio="xMidYMid meet" version="1.0"><defs><g/><clipPath id="b2da37208c"><path d="M 0 103.503906 L 75.675781 103.503906 L 75.675781 179.179688 L 0 179.179688 Z M 0 103.503906 " clip-rule="nonzero"/></clipPath><clipPath id="ba490547eb"><path d="M 0 0.503906 L 75.675781 0.503906 L 75.675781 76.179688 L 0 76.179688 Z M 0 0.503906 " clip-rule="nonzero"/></clipPath><clipPath id="1016a40c33"><rect x="0" width="76" y="0" height="77"/></clipPath><clipPath id="e33718b5b3"><path d="M 328.339844 209.011719 L 375 209.011719 L 375 255.667969 L 328.339844 255.667969 Z M 328.339844 209.011719 " clip-rule="nonzero"/></clipPath><clipPath id="ea8caeba29"><path d="M 0.339844 0.0117188 L 47 0.0117188 L 47 46.667969 L 0.339844 46.667969 Z M 0.339844 0.0117188 " clip-rule="nonzero"/></clipPath><clipPath id="218a783c4f"><rect x="0" width="47" y="0" height="47"/></clipPath><clipPath id="480dfe55c8"><path d="M 79.535156 183.210938 L 151.992188 183.210938 L 151.992188 255.667969 L 79.535156 255.667969 Z M 79.535156 183.210938 " clip-rule="nonzero"/></clipPath><clipPath id="46abc3c51e"><path d="M 0.535156 0.210938 L 72.992188 0.210938 L 72.992188 72.667969 L 0.535156 72.667969 Z M 0.535156 0.210938 " clip-rule="nonzero"/></clipPath><clipPath id="5534bb3536"><rect x="0" width="73" y="0" height="73"/></clipPath><clipPath id="0a2b44700c"><path d="M 199.109375 123.308594 L 271.265625 123.308594 L 271.265625 195.46875 L 199.109375 195.46875 Z M 199.109375 123.308594 " clip-rule="nonzero"/></clipPath><clipPath id="676c801c84"><path d="M 0.109375 0.308594 L 72.265625 0.308594 L 72.265625 72.46875 L 0.109375 72.46875 Z M 0.109375 0.308594 " clip-rule="nonzero"/></clipPath><clipPath id="d1e423c4c6"><rect x="0" width="73" y="0" height="73"/></clipPath><clipPath id="8e7b8eddde"><path d="M 199.113281 123.308594 L 271.109375 123.308594 L 271.109375 195.308594 L 199.113281 195.308594 Z M 199.113281 123.308594 " clip-rule="nonzero"/></clipPath><clipPath id="2c0db6a417"><rect x="0" width="330" y="0" height="198"/></clipPath><clipPath id="2dbd17ed1a"><rect x="0" width="44" y="0" height="60"/></clipPath></defs><g clip-path="url(#b2da37208c)"><g transform="matrix(1, 0, 0, 1, 0, 103)"><g clip-path="url(#1016a40c33)"><g clip-path="url(#ba490547eb)"><path fill="#64f0b4" d="M 0 0.503906 L 75.675781 0.503906 L 75.675781 76.179688 L 0 76.179688 Z M 0 0.503906 " fill-opacity="1" fill-rule="nonzero"/></g></g></g></g><g clip-path="url(#e33718b5b3)"><g transform="matrix(1, 0, 0, 1, 328, 209)"><g clip-path="url(#218a783c4f)"><g clip-path="url(#ea8caeba29)"><path fill="#64f0b4" d="M 0.339844 0.0117188 L 47 0.0117188 L 47 46.667969 L 0.339844 46.667969 Z M 0.339844 0.0117188 " fill-opacity="1" fill-rule="nonzero"/></g></g></g></g><g clip-path="url(#480dfe55c8)"><g transform="matrix(1, 0, 0, 1, 79, 183)"><g clip-path="url(#5534bb3536)"><g clip-path="url(#46abc3c51e)"><path fill="#ffffff" d="M 0.535156 0.210938 L 72.992188 0.210938 L 72.992188 72.667969 L 0.535156 72.667969 Z M 0.535156 0.210938 " fill-opacity="1" fill-rule="nonzero"/></g></g></g><path stroke-linecap="butt" transform="matrix(0.75, 0, 0, 0.75, 79.536789, 183.212419)" fill="none" stroke-linejoin="miter" d="M -0.00217684 -0.00197556 L 96.607205 -0.00197556 L 96.607205 96.607406 L -0.00217684 96.607406 Z M -0.00217684 -0.00197556 " stroke="#c8ebeb" stroke-width="2" stroke-opacity="1" stroke-miterlimit="4"/></g><g clip-path="url(#0a2b44700c)"><g transform="matrix(1, 0, 0, 1, 199, 123)"><g clip-path="url(#d1e423c4c6)"><g clip-path="url(#676c801c84)"><path fill="#ffffff" d="M 0.109375 0.308594 L 72.265625 0.308594 L 72.265625 72.464844 L 0.109375 72.464844 Z M 0.109375 0.308594 " fill-opacity="1" fill-rule="nonzero"/></g></g></g></g><g clip-path="url(#8e7b8eddde)"><path stroke-linecap="butt" transform="matrix(0.75, 0, 0, 0.75, 199.111691, 123.30988)" fill="none" stroke-linejoin="miter" d="M 0.00212083 -0.00171487 L 96.200044 -0.00171487 L 96.200044 96.201416 L 0.00212083 96.201416 Z M 0.00212083 -0.00171487 " stroke="#c8ebeb" stroke-width="2" stroke-opacity="1" stroke-miterlimit="4"/></g><g transform="matrix(1, 0, 0, 1, 23, 96)"><g clip-path="url(#2c0db6a417)"><g fill="#000000" fill-opacity="1"><g transform="translate(0.156863, 153.859379)"><g><path d="M 34.953125 -64.96875 L 34.65625 -64.96875 L 34.65625 0 L 11.015625 0 L 11.015625 -105.875 L 34.65625 -105.875 L 68.890625 -40.90625 L 69.1875 -40.90625 L 69.1875 -105.875 L 92.8125 -105.875 L 92.8125 0 L 69.1875 0 Z M 34.953125 -64.96875 "/></g></g></g><g fill="#000000" fill-opacity="1"><g transform="translate(103.992347, 153.859379)"><g><path d="M 31.609375 -20.296875 C 34.035156 -16.722656 37.664062 -14.9375 42.5 -14.9375 C 47.332031 -14.9375 50.90625 -16.722656 53.21875 -20.296875 C 55.644531 -23.878906 56.859375 -29.679688 56.859375 -37.703125 C 56.859375 -45.734375 55.644531 -51.535156 53.21875 -55.109375 C 50.90625 -58.691406 47.332031 -60.484375 42.5 -60.484375 C 37.664062 -60.484375 34.035156 -58.691406 31.609375 -55.109375 C 29.296875 -51.535156 28.140625 -45.734375 28.140625 -37.703125 C 28.140625 -29.773438 29.296875 -23.972656 31.609375 -20.296875 Z M 14.5 -66.5625 C 21.175781 -73.425781 30.507812 -76.859375 42.5 -76.859375 C 54.488281 -76.859375 63.816406 -73.425781 70.484375 -66.5625 C 77.160156 -59.800781 80.5 -50.179688 80.5 -37.703125 C 80.5 -25.328125 77.160156 -15.707031 70.484375 -8.84375 C 63.816406 -1.976562 54.488281 1.453125 42.5 1.453125 C 30.507812 1.453125 21.175781 -1.976562 14.5 -8.84375 C 7.832031 -15.707031 4.5 -25.328125 4.5 -37.703125 C 4.5 -50.179688 7.832031 -59.800781 14.5 -66.5625 Z M 14.5 -66.5625 "/></g></g></g><g fill="#000000" fill-opacity="1"><g transform="translate(188.975024, 153.859379)"><g><path d="M 81.21875 0 L 11.015625 0 L 11.015625 -105.875 L 36.40625 -105.875 L 36.40625 -20.453125 L 81.21875 -20.453125 Z M 81.21875 0 "/></g></g></g><g fill="#000000" fill-opacity="1"><g transform="translate(277.58323, 153.859379)"><g><path d="M 13.203125 -108.765625 L 37.859375 -108.765625 L 37.859375 -89.921875 L 13.203125 -89.921875 Z M 13.203125 -75.421875 L 37.859375 -75.421875 L 37.859375 0 L 13.203125 0 Z M 13.203125 -75.421875 "/></g></g></g></g></g><g transform="matrix(1, 0, 0, 1, 331, 93)"><g clip-path="url(#2dbd17ed1a)"><g fill="#000000" fill-opacity="1"><g transform="translate(0.267571, 46.665083)"><g><path d="M 11.8125 -23.046875 L 9.921875 -29 C 11.441406 -29.988281 13.296875 -30.789062 15.484375 -31.40625 C 17.609375 -32.039062 19.707031 -32.359375 21.78125 -32.359375 C 25.425781 -32.359375 28.242188 -31.519531 30.234375 -29.84375 C 32.234375 -28.164062 33.234375 -25.84375 33.234375 -22.875 C 33.234375 -20.3125 32.359375 -17.847656 30.609375 -15.484375 C 28.859375 -13.148438 25.460938 -10.015625 20.421875 -6.078125 L 20.421875 -5.984375 L 33.375 -5.984375 L 33.375 0 L 10.625 0 L 10.625 -5.984375 C 14.820312 -9.023438 18.015625 -11.519531 20.203125 -13.46875 C 22.421875 -15.445312 23.863281 -17.035156 24.53125 -18.234375 C 25.226562 -19.515625 25.578125 -20.828125 25.578125 -22.171875 C 25.578125 -24.859375 23.945312 -26.203125 20.6875 -26.203125 C 18.238281 -26.203125 15.28125 -25.148438 11.8125 -23.046875 Z M 11.8125 -23.046875 "/></g></g></g></g></g></svg>